<mxfile host="app.diagrams.net" modified="2023-01-06T01:43:32.983Z" agent="5.0 (Macintosh; Intel Mac OS X 10_15_7) AppleWebKit/537.36 (KHTML, like Gecko) Chrome/108.0.0.0 Safari/537.36" etag="JBSXk1NERDRXV8luy6eg" version="20.5.3" type="github">
  <diagram id="A66iIDwvQ_yZnWwzmXOM" name="第 1 页">
    <mxGraphModel dx="681" dy="293" grid="1" gridSize="10" guides="1" tooltips="1" connect="1" arrows="1" fold="1" page="1" pageScale="1" pageWidth="827" pageHeight="1169" math="0" shadow="0">
      <root>
        <mxCell id="0" />
        <mxCell id="1" parent="0" />
        <mxCell id="7d0W0aQnqDNfrAavB2Uc-15" value="" style="edgeStyle=orthogonalEdgeStyle;rounded=0;orthogonalLoop=1;jettySize=auto;html=1;" edge="1" parent="1" source="7d0W0aQnqDNfrAavB2Uc-1" target="7d0W0aQnqDNfrAavB2Uc-12">
          <mxGeometry relative="1" as="geometry" />
        </mxCell>
        <mxCell id="7d0W0aQnqDNfrAavB2Uc-1" value="" style="rounded=1;whiteSpace=wrap;html=1;fillColor=#fff2cc;strokeColor=#d6b656;" vertex="1" parent="1">
          <mxGeometry x="310" y="150" width="250" height="120" as="geometry" />
        </mxCell>
        <mxCell id="7d0W0aQnqDNfrAavB2Uc-2" value="" style="rounded=1;whiteSpace=wrap;html=1;fillColor=#d5e8d4;strokeColor=#82b366;" vertex="1" parent="1">
          <mxGeometry x="400" y="185" width="150" height="70" as="geometry" />
        </mxCell>
        <mxCell id="7d0W0aQnqDNfrAavB2Uc-5" value="用户自定义函数" style="rounded=1;whiteSpace=wrap;html=1;fillColor=#dae8fc;strokeColor=#6c8ebf;" vertex="1" parent="1">
          <mxGeometry x="450" y="210" width="90" height="40" as="geometry" />
        </mxCell>
        <mxCell id="7d0W0aQnqDNfrAavB2Uc-6" value="" style="rounded=1;whiteSpace=wrap;html=1;fillColor=#fff2cc;strokeColor=#d6b656;" vertex="1" parent="1">
          <mxGeometry x="125" y="180" width="130" height="60" as="geometry" />
        </mxCell>
        <mxCell id="7d0W0aQnqDNfrAavB2Uc-8" value="OneInputTransformation" style="text;html=1;strokeColor=none;fillColor=none;align=center;verticalAlign=middle;whiteSpace=wrap;rounded=0;" vertex="1" parent="1">
          <mxGeometry x="300" y="320" width="150" height="30" as="geometry" />
        </mxCell>
        <mxCell id="7d0W0aQnqDNfrAavB2Uc-9" value="StreamOperator" style="text;html=1;strokeColor=none;fillColor=none;align=center;verticalAlign=middle;whiteSpace=wrap;rounded=0;" vertex="1" parent="1">
          <mxGeometry x="420" y="180" width="60" height="30" as="geometry" />
        </mxCell>
        <mxCell id="7d0W0aQnqDNfrAavB2Uc-11" value="StreamTransformation" style="text;html=1;align=center;verticalAlign=middle;resizable=0;points=[];autosize=1;strokeColor=none;fillColor=none;" vertex="1" parent="1">
          <mxGeometry x="320" y="155" width="140" height="30" as="geometry" />
        </mxCell>
        <mxCell id="7d0W0aQnqDNfrAavB2Uc-12" value="StreamTransformation" style="text;html=1;align=center;verticalAlign=middle;resizable=0;points=[];autosize=1;strokeColor=none;fillColor=none;" vertex="1" parent="1">
          <mxGeometry x="120" y="195" width="140" height="30" as="geometry" />
        </mxCell>
        <mxCell id="7d0W0aQnqDNfrAavB2Uc-19" value="" style="edgeStyle=orthogonalEdgeStyle;rounded=0;orthogonalLoop=1;jettySize=auto;html=1;entryX=1;entryY=0.5;entryDx=0;entryDy=0;" edge="1" parent="1" source="7d0W0aQnqDNfrAavB2Uc-13" target="7d0W0aQnqDNfrAavB2Uc-1">
          <mxGeometry relative="1" as="geometry" />
        </mxCell>
        <mxCell id="7d0W0aQnqDNfrAavB2Uc-13" value="" style="rounded=1;whiteSpace=wrap;html=1;fillColor=#fff2cc;strokeColor=#d6b656;" vertex="1" parent="1">
          <mxGeometry x="610" y="180" width="130" height="60" as="geometry" />
        </mxCell>
        <mxCell id="7d0W0aQnqDNfrAavB2Uc-14" value="StreamTransformation" style="text;html=1;align=center;verticalAlign=middle;resizable=0;points=[];autosize=1;strokeColor=none;fillColor=none;" vertex="1" parent="1">
          <mxGeometry x="605" y="195" width="140" height="30" as="geometry" />
        </mxCell>
        <mxCell id="7d0W0aQnqDNfrAavB2Uc-20" value="" style="endArrow=classic;html=1;rounded=0;" edge="1" parent="1">
          <mxGeometry width="50" height="50" relative="1" as="geometry">
            <mxPoint x="440" y="255" as="sourcePoint" />
            <mxPoint x="440" y="300" as="targetPoint" />
          </mxGeometry>
        </mxCell>
        <mxCell id="7d0W0aQnqDNfrAavB2Uc-21" value="StreamMap" style="text;html=1;align=center;verticalAlign=middle;resizable=0;points=[];autosize=1;strokeColor=none;fillColor=none;" vertex="1" parent="1">
          <mxGeometry x="400" y="295" width="90" height="30" as="geometry" />
        </mxCell>
        <mxCell id="7d0W0aQnqDNfrAavB2Uc-23" value="MapFunction" style="text;html=1;align=center;verticalAlign=middle;resizable=0;points=[];autosize=1;strokeColor=none;fillColor=none;" vertex="1" parent="1">
          <mxGeometry x="480" y="280" width="90" height="30" as="geometry" />
        </mxCell>
        <mxCell id="7d0W0aQnqDNfrAavB2Uc-24" value="Map算子" style="text;html=1;align=center;verticalAlign=middle;resizable=0;points=[];autosize=1;strokeColor=none;fillColor=none;" vertex="1" parent="1">
          <mxGeometry x="230" y="290" width="70" height="30" as="geometry" />
        </mxCell>
        <mxCell id="7d0W0aQnqDNfrAavB2Uc-27" value="" style="endArrow=classic;html=1;rounded=0;" edge="1" parent="1">
          <mxGeometry width="50" height="50" relative="1" as="geometry">
            <mxPoint x="370" y="270" as="sourcePoint" />
            <mxPoint x="370" y="315" as="targetPoint" />
          </mxGeometry>
        </mxCell>
        <mxCell id="7d0W0aQnqDNfrAavB2Uc-29" value="" style="endArrow=classic;html=1;rounded=0;" edge="1" parent="1">
          <mxGeometry width="50" height="50" relative="1" as="geometry">
            <mxPoint x="524.69" y="250" as="sourcePoint" />
            <mxPoint x="525" y="280" as="targetPoint" />
          </mxGeometry>
        </mxCell>
      </root>
    </mxGraphModel>
  </diagram>
</mxfile>
